Coordinates
version=1
nRows=8
nColumns=40
inDegrees=yes

Units are S.I. units (second, meters, Newtons, ...)
Angles are in degrees.

endheader
time	pelvis_tilt	pelvis_list	pelvis_rotation	pelvis_tx	pelvis_ty	pelvis_tz	hip_flexion_r	hip_adduction_r	hip_rotation_r	knee_angle_r	knee_angle_r_beta	ankle_angle_r	subtalar_angle_r	mtp_angle_r	hip_flexion_l	hip_adduction_l	hip_rotation_l	knee_angle_l	knee_angle_l_beta	ankle_angle_l	subtalar_angle_l	mtp_angle_l	lumbar_extension	lumbar_bending	lumbar_rotation	arm_flex_r	arm_add_r	arm_rot_r	elbow_flex_r	pro_sup_r	wrist_flex_r	wrist_dev_r	arm_flex_l	arm_add_l	arm_rot_l	elbow_flex_l	pro_sup_l	wrist_flex_l	wrist_dev_l
     56.13000000	     -5.56028168	     -4.32165265	      0.19337864	      0.88531964	      0.92880110	      0.43327278	     34.83561441	     -3.38069982	     -5.16968864	     64.74637230	     64.74637230	      4.64901766	    -19.04596529	     11.07715216	     19.02161298	     -4.24334232	     -2.64289527	     23.42113295	     23.42113295	     12.33977264	    -13.75009143	      2.32927462	    -11.33119201	      4.28067542	      1.68940885	     10.37746834	    -12.89272648	      6.39102063	     34.90067687	     44.71859080	      0.00000000	      0.00000000	     15.15472175	    -13.55615436	      0.26202378	     47.55048066	     44.77275337	      0.00000000	      0.00000000
     56.14257143	     -5.59948043	     -4.32084316	     -0.21462417	      0.88521959	      0.92928507	      0.43314098	     35.34602615	     -3.26237037	     -5.13148879	     62.03707929	     62.03707929	      4.07023287	    -18.86714337	      8.95515031	     18.35776781	     -4.33711825	     -3.12064638	     23.10831032	     23.10831032	     12.68511693	    -13.46440359	      2.12324230	    -11.42506200	      4.42386556	      1.68205158	      9.17098235	    -13.15871303	      5.60795223	     32.09583476	     44.94948967	      0.00000000	      0.00000000	     15.18606465	    -13.92490905	     -0.53213104	     50.60550072	     45.00383982	      0.00000000	      0.00000000
     56.15514286	     -5.62178013	     -4.31548555	     -0.62309790	      0.88508424	      0.92976539	      0.43301758	     35.73013730	     -3.04632176	     -4.99849727	     59.15991438	     59.15991438	      3.91383108	    -18.56876148	      8.44875995	     17.64773776	     -4.35760710	     -3.38430186	     22.72211645	     22.72211645	     12.95830642	    -13.57533337	      2.19065444	    -11.56398373	      4.57816224	      2.24704837	      7.29644579	    -13.89458025	      5.45469333	     30.47928857	     45.03050656	      0.00000000	      0.00000000	     16.05182836	    -13.89220009	     -1.00975135	     52.36908401	     45.10381689	      0.00000000	      0.00000000
     56.16771429	     -5.72180452	     -4.34987516	     -0.96234819	      0.88489025	      0.93000124	      0.43289558	     35.92246620	     -2.92529104	     -5.15827075	     55.83493930	     55.83493930	      2.77023156	    -18.29284488	      4.81765727	     17.10621663	     -4.42320892	     -3.63907547	     22.45544814	     22.45544814	     13.29081748	    -13.54068091	      2.23711838	    -11.63226968	      4.75593419	      1.73297914	      6.56688932	    -13.94757718	      4.18060122	     27.50661139	     45.31697216	      0.00000000	      0.00000000	     15.43333828	    -14.45756484	     -2.33562795	     56.40571183	     45.38522159	      0.00000000	      0.00000000
     56.18028571	     -5.81174784	     -4.45903917	     -1.30920443	      0.88465683	      0.93020267	      0.43302339	     36.07575244	     -2.59316165	     -5.22155589	     52.50535230	     52.50535230	      2.65515744	    -17.68622463	      4.56452856	     16.56663177	     -4.57044790	     -3.81955810	     22.19335698	     22.19335698	     13.58304428	    -13.60718905	      2.23963299	    -11.69752044	      5.01865941	      2.19219102	      4.83176234	    -14.59809045	      3.95861745	     26.10228669	     45.39628881	      0.00000000	      0.00000000	     16.25969793	    -14.43449510	     -2.83104606	     57.96046399	     45.47949747	      0.00000000	      0.00000000
     56.19285714	     -5.97643043	     -4.62814415	     -1.57957359	      0.88433898	      0.93022099	      0.43320231	     36.15065599	     -2.26638769	     -5.47383198	     48.95955980	     48.95955980	      2.57801498	    -16.77408848	      4.20310010	     16.18097946	     -4.78135912	     -3.93413114	     22.02039800	     22.02039800	     13.86254467	    -13.62704718	      2.20093145	    -11.69839356	      5.36551888	      2.38560778	      3.27252081	    -15.16527201	      3.68906853	     24.90827346	     45.46998859	      0.00000000	      0.00000000	     16.77623520	    -14.49123097	     -3.28529813	     59.68592740	     45.56294129	      0.00000000	      0.00000000
     56.20542857	     -6.21054797	     -4.71530590	     -1.88199527	      0.88403687	      0.92992804	      0.43365088	     36.12893836	     -2.00994002	     -5.78149931	     45.10711062	     45.10711062	      1.64491321	    -15.99129818	      0.95794197	     15.91193716	     -4.96283148	     -4.22794985	     21.94225765	     21.94225765	     14.21513422	    -13.46650150	      2.14896430	    -11.68556461	      5.52483295	      1.76326527	      2.57991690	    -15.21084779	      2.00929974	     22.97413015	     45.76639665	      0.00000000	      0.00000000	     15.77534825	    -15.11080234	     -4.84079359	     64.39636965	     45.84597250	      0.00000000	      0.00000000
     56.21800000	     -6.49940989	     -4.92705650	     -2.15027726	      0.88371945	      0.92964780	      0.43427608	     36.10058486	     -1.57210263	     -6.13228597	     41.25812693	     41.25812693	      1.78920720	    -14.66673739	      1.09772534	     15.68598116	     -5.23651025	     -4.25759263	     21.80434707	     21.80434707	     14.47220841	    -13.58805342	      2.09722286	    -11.52075394	      5.89388448	      1.85269428	      1.17244777	    -15.66387229	      1.83796710	     22.19506029	     45.81119778	      0.00000000	      0.00000000	     16.33530756	    -15.32474421	     -5.20992348	     65.35003013	     45.90373725	      0.00000000	      0.00000000
